<svg xmlns="http://www.w3.org/2000/svg" viewBox="0 0 64 80" x="0px" y="0px" fill='#92a649'><path d="M32,26c-3.31,0-6,2.69-6,6s2.69,6,6,6,6-2.69,6-6-2.69-6-6-6Zm0,10c-2.21,0-4-1.79-4-4s1.79-4,4-4,4,1.79,4,4-1.79,4-4,4Zm28.63,6.74s-1.92-1.61-2.81-5.71c-.44-2.03-1.71-3.76-3.7-5.08,2.01-1.34,3.24-3.05,3.68-5.1,.87-4.1,2.75-5.7,2.76-5.71,.35-.28,.47-.75,.3-1.16-.17-.41-.58-.66-1.03-.62-.02,0-2.48,.22-6.02-2.05-1.77-1.14-3.85-1.47-6.21-.98,.48-2.36,.14-4.44-1-6.21-2.29-3.52-2.08-5.98-2.08-6,.05-.44-.2-.86-.61-1.03-.41-.17-.88-.05-1.17,.29-.02,.02-1.61,1.92-5.71,2.81-2,.43-3.71,1.68-5.03,3.63-1.32-1.95-3.03-3.19-5.03-3.63-4.1-.89-5.7-2.79-5.71-2.8-.27-.35-.75-.47-1.16-.3-.41,.17-.67,.59-.62,1.03,0,.02,.21,2.49-2.08,6.01-1.14,1.77-1.48,3.85-1,6.21-2.36-.49-4.45-.16-6.21,.98-3.54,2.27-5.99,2.06-6.01,2.05-.44-.05-.86,.19-1.03,.6-.17,.41-.06,.88,.29,1.17,.02,.02,1.9,1.61,2.77,5.71,.44,2.05,1.67,3.76,3.68,5.1-1.99,1.32-3.26,3.06-3.7,5.09-.89,4.1-2.79,5.7-2.8,5.71-.35,.27-.47,.75-.3,1.16s.59,.66,1.03,.62c.02,0,2.49-.21,6.01,2.08,1.77,1.14,3.85,1.48,6.21,1-.49,2.36-.16,4.45,.98,6.21,2.27,3.54,2.06,5.99,2.05,6.01-.05,.44,.19,.86,.6,1.03,.41,.17,.88,.06,1.17-.29,.02-.02,1.61-1.9,5.71-2.77,2.08-.45,3.81-1.71,5.16-3.76,1.35,2.05,3.08,3.32,5.16,3.76,4.1,.87,5.69,2.75,5.71,2.76,.19,.24,.48,.37,.78,.37,.13,0,.26-.02,.38-.07,.41-.17,.66-.59,.62-1.03,0-.02-.22-2.48,2.05-6.02,1.14-1.77,1.47-3.85,.98-6.21,2.36,.48,4.44,.14,6.21-1,3.49-2.27,5.95-2.08,6.01-2.08,.46,.05,.85-.2,1.02-.61,.17-.41,.05-.89-.29-1.17Zm-7.9-23.75c2.11,1.35,3.92,1.95,5.21,2.2-.73,1.1-1.58,2.79-2.1,5.24-.34,1.59-1.38,2.93-3.09,4.01-.67-2.57-2.93-4.51-5.67-4.67,1.02-1.14,1.57-2.61,1.57-4.16,0-1.17-.32-2.28-.91-3.25,1.95-.45,3.62-.25,4.99,.64Zm-20.73,31.97c-1.13,0-2.2-.44-3.01-1.24-.8-.81-1.24-1.88-1.24-3.02v-.82c1.55,.19,3.13-.34,4.25-1.44,.98,.96,2.29,1.49,3.64,1.49,.2,0,.41-.04,.61-.06v.83c0,2.34-1.91,4.25-4.25,4.25Zm0-37.91c1.13,0,2.2,.44,3.01,1.24,.8,.81,1.24,1.88,1.24,3.01v.82c-1.55-.19-3.13,.34-4.25,1.44-1.13-1.1-2.7-1.63-4.25-1.44v-.82c0-2.34,1.91-4.25,4.25-4.25Zm13.41,5.55c.8,.8,1.24,1.87,1.24,3.01s-.44,2.21-1.24,3.01l-.58,.58c-.97-1.23-2.46-1.97-4.03-1.99-.02-1.57-.76-3.06-1.99-4.03l.58-.58c1.66-1.65,4.36-1.65,6.02,0Zm-3.08,14.27c1.39,.8,1.97,2.51,1.36,3.97,0,0,0,0,0,0-.61,1.47-2.23,2.27-3.78,1.85-.34-.09-.71,0-.96,.26-.25,.25-.35,.62-.26,.97,.41,1.54-.38,3.17-1.86,3.78-1.46,.61-3.17,.02-3.97-1.36-.18-.31-.51-.5-.87-.5s-.69,.19-.87,.5c-.8,1.39-2.51,1.97-3.97,1.36-1.47-.61-2.27-2.23-1.85-3.78,.09-.35,0-.71-.26-.97-.25-.25-.62-.35-.96-.26-1.55,.41-3.17-.39-3.78-1.86-.61-1.46-.02-3.17,1.36-3.97,.31-.18,.5-.51,.5-.87s-.19-.69-.5-.87c-1.39-.8-1.97-2.51-1.36-3.97,.61-1.47,2.23-2.27,3.78-1.85,.34,.09,.71,0,.96-.26,.25-.25,.35-.62,.26-.97-.41-1.54,.38-3.17,1.86-3.78,1.46-.61,3.17-.02,3.97,1.36,.36,.62,1.37,.62,1.73,0,.8-1.39,2.5-1.97,3.97-1.36,1.47,.61,2.27,2.23,1.85,3.78-.09,.35,0,.71,.26,.97,.25,.25,.62,.35,.96,.26,1.55-.41,3.17,.38,3.78,1.86,.61,1.46,.02,3.17-1.36,3.97-.31,.18-.5,.51-.5,.87s.19,.69,.5,.87Zm-19.12-9.66c-1.57,.02-3.06,.76-4.03,1.99l-.58-.58c-1.65-1.66-1.65-4.36,0-6.02,.8-.8,1.87-1.24,3.01-1.24s2.21,.44,3.01,1.24l.58,.58c-1.23,.97-1.98,2.46-1.99,4.03Zm-5.09,4.55c-.19,1.55,.34,3.13,1.44,4.25-1.1,1.13-1.63,2.7-1.44,4.25h-.82c-2.34,0-4.25-1.91-4.25-4.25,0-1.13,.44-2.2,1.24-3.01,.81-.8,1.88-1.24,3.01-1.24h.82Zm.48,17.66c-.8-.8-1.24-1.87-1.24-3.01s.44-2.21,1.24-3.01l.58-.58c.97,1.23,2.46,1.97,4.03,1.99,.02,1.57,.76,3.06,1.99,4.03l-.58,.58c-1.66,1.65-4.36,1.65-6.02,0Zm22.21-4.61c1.57-.02,3.06-.76,4.03-1.99l.58,.58c1.65,1.66,1.65,4.36,0,6.02-.8,.8-1.87,1.24-3.01,1.24s-2.21-.44-3.01-1.24l-.58-.58c1.23-.97,1.98-2.46,1.99-4.03Zm5.09-4.55c.19-1.55-.34-3.13-1.44-4.25,1.1-1.13,1.63-2.7,1.44-4.25h.82c2.34,0,4.25,1.91,4.25,4.25,0,1.13-.44,2.2-1.24,3.01-.81,.8-1.88,1.24-3.01,1.24h-.82Zm-8.43-28.11c2.45-.53,4.15-1.39,5.24-2.13,.26,1.29,.86,3.1,2.22,5.19,.89,1.38,1.1,3.07,.64,5.03-2.3-1.34-5.27-1.13-7.32,.69-.09-1.52-.72-2.95-1.82-4.06-.83-.82-1.85-1.38-2.95-1.64,1.06-1.7,2.39-2.74,3.98-3.09Zm-18.37,3.07c1.37-2.1,1.97-3.9,2.23-5.2,1.09,.74,2.79,1.6,5.24,2.13,1.59,.35,2.93,1.39,3.98,3.09-2.62,.64-4.61,2.92-4.77,5.7-1.14-1.02-2.61-1.57-4.16-1.57-1.13,0-2.22,.3-3.17,.86-.45-1.95-.24-3.64,.64-5.01Zm-10.92,15.22c-.52-2.44-1.37-4.14-2.1-5.24,1.29-.25,3.1-.85,5.21-2.2,1.37-.89,3.05-1.09,5-.63-1.4,2.31-1.19,5.32,.65,7.4-1.52,.09-2.95,.72-4.06,1.82-.8,.8-1.34,1.79-1.62,2.85-1.71-1.07-2.75-2.41-3.09-4.01Zm3.04,18.49c-2.1-1.37-3.9-1.97-5.2-2.22,.74-1.1,1.6-2.79,2.13-5.24,.35-1.6,1.39-2.94,3.09-3.99,.63,2.63,2.92,4.61,5.7,4.78-1.02,1.14-1.57,2.61-1.57,4.16,0,1.13,.3,2.22,.86,3.17-1.96,.45-3.64,.24-5.01-.64Zm15.22,10.92c-2.44,.52-4.14,1.37-5.24,2.1-.25-1.29-.84-3.1-2.2-5.21-.89-1.37-1.09-3.05-.63-5,2.31,1.4,5.32,1.19,7.4-.65,.09,1.52,.72,2.95,1.82,4.06,.81,.8,1.79,1.34,2.85,1.62-1.07,1.7-2.41,2.75-4.01,3.09Zm18.58-3.11c-1.35,2.11-1.95,3.92-2.2,5.21-1.1-.73-2.79-1.58-5.24-2.1-1.6-.34-2.94-1.39-4.01-3.09,2.57-.67,4.51-2.93,4.67-5.67,1.14,1.02,2.61,1.57,4.16,1.57,1.17,0,2.28-.32,3.25-.91,.45,1.95,.25,3.62-.64,4.99Zm7.79-7.81c-1.38,.89-3.07,1.1-5.03,.64,1.34-2.3,1.13-5.26-.69-7.32,1.52-.09,2.95-.72,4.06-1.82,.82-.83,1.38-1.85,1.64-2.95,1.69,1.05,2.74,2.39,3.09,3.99,.53,2.45,1.39,4.15,2.13,5.24-1.29,.26-3.1,.86-5.19,2.22Z"/><text x="0" y="79" fill="#92a649" font-size="5px" font-weight="bold" font-family="'Helvetica Neue', Helvetica, Arial-Unicode, Arial, Sans-serif"></text><text x="0" y="84" fill="##92a649" font-size="5px" font-weight="bold" font-family="'Helvetica Neue', Helvetica, Arial-Unicode, Arial, Sans-serif"></text></svg>